/* XPM */
static char *collectible[] = {
"64 64 5 1",
"  c None",
"c c #D6A15E",
"y c #F2D16B",
"r c #B6453A",
"s c #D65A3A",
"                                                                ",
"                                                                ",
"                                                                ",
"                                                                ",
"                                                                ",
"                                                                ",
"                                c                               ",
"                                c                               ",
"                                c                               ",
"                               ccc                              ",
"                               ccc                              ",
"                              ccycc                             ",
"                              ccycc                             ",
"                             ccysycc                            ",
"                             ccyyycc                            ",
"                            cccyyyccc                           ",
"                            ccyyyyycc                           ",
"                           cccyyysyccc                          ",
"                           ccyyyyyyycc                          ",
"                           ccyyyyyyycc                          ",
"                          ccsyyyyyyyycc                         ",
"                          ccyyyyyysyrcc                         ",
"                         ccyyyyyyyrrrrrc                        ",
"                         ccyyyyyyyrrrrrc                        ",
"                        ccyyysryyrrrrrrrc                       ",
"                        ccyyrrrrryrrrrrcc                       ",
"                       cccyrrrrrrrrrrrrccc                      ",
"                       ccyyrrrrrrryyryyycc                      ",
"                      cccyrrrrrrrrryyyyyccc                     ",
"                      ccyyyrrrrrrryysyyyycc                     ",
"                     cccyyyrrrrrrryyyyyyyccc                    ",
"                     ccyysyyrrrrryyyyyyyyycc                    ",
"                     ccyyyyyyyrsyyyyyyyyyycc                    ",
"                    ccyyyyyyyyyyyyyyysyyyyycc                   ",
"                    ccryyyyyyyyyyyyyyyyyryycc                   ",
"                   crrrrrysyyyyyyyyyyyrrrrrycc                  ",
"                   rrrrrrryyyyyysyyyyrrrrrrrcc                  ",
"                  crrrrrrryyyyyyyyyyyrrrrrrrycc                 ",
"                  rrrrrrrrryyyyyyyyyrrrrrrrrrcc                 ",
"                 ccrrrrrrrysyyyyyyyyyrrrrrrryccc                ",
"                 ccrrrrrrryyyyyyysyyyrrrrrrryycc                ",
"                cccyrrrrryyyyyyyyyyyyyrrrrryyyccc               ",
"                ccyyyyryyyyyyyryyyyyyyyyryyyysycc               ",
"                ccyyyyyyyyyyrrrrryyyyyyyyyyyyyycc               ",
"               ccyyyyyyyyyyrrrrrrrsyyyyyyyyyyyyycc              ",
"               ccsyyyyyyyyyrrrrrrryyyyyysyyyyyyycc              ",
"              ccyyyyyyysyyrrrrrrrrryyyyyyyyyyysyycc             ",
"              ccyyyyyyyyyyyrrrrrrryyyyyyyyyyyyyyycc             ",
"             ccyyyyyyyyyyyyrrrrrrrysyyyyyyyyyyyyyycc            ",
"             ccyyysyyyyyyyyyrrrrryyyyyyyysyyyyyyyycc            ",
"            cccyyyyyyyyysyyyyyryyyyyyyyyyyyyyyysyyccc           ",
"            ccyyyyyyyyyyyyyyyysyyyyyyyyyyyyyyyyyyyycc           ",
"           ccccccccccccccccccccccccccccccccccccccccccc          ",
"           ccccccccccccccccccccccccccccccccccccccccccc          ",
"          ccccccccccccccccccccccccccccccccccccccccccccc         ",
"                                                                ",
"                                                                ",
"                                                                ",
"                                                                ",
"                                                                ",
"                                                                ",
"                                                                ",
"                                                                ",
"                                                                ",
};
