/* XPM */
static char *collectible[] = {
"64 64 8 1",
"  c #050510", /* Sfondo pavimento */
". c #0A1430", /* Linee secondarie pavimento */
"o c #00F2FF", /* Laser pavimento e dettagli chip */
"B c #000000", /* Outline chip */
"g c #D4AF37", /* Oro chip */
"y c #FFD700", /* Giallo brillante */
"d c #2F2F2F", /* Area dati scura */
"m c #FF007A", /* Magenta dati */
"                                                                ",
"                                                                ",
"                                                                ",
"                                                                ",
"    o                                                           ",
"    o                                                           ",
"ooooo oooooooooooooooooooooooooooooooooooooooooooooooooooooooooo",
"    o                                                           ",
"    o                                                           ",
"    o         .         .         .         .         .         ",
"    o         .         .         .         .         .         ",
"    o         .         .         .         .         .         ",
"    o         . BBBBBBBBBBBBBBBBBBBBBBBBBBBBBBBBBBBB  .         ",
"    o         BBggggggggggggggggggggggggggggggggggggBB.         ",
"    o       BBggggggggggggggggggggggggggggggggggggggggBB        ",
"    o BBBBBByggggggggggggggggggggggggggggggggggggggggyBBBBBB    ",
"    o ByyyyyBggggggggggggggggggggggggggggggggggggggggBByyyyyB   ",
"    o BgggggBggggggggggggggggggggggggggggggggggggggggBBgggggB   ",
"    o BgggggBggBBBBBBBBBBBBBBBBBBBBBBBBBBBBBBBBBBBBggBBgggggB   ",
"    o BBBBBByyBddddddddddddddddddddddddddddddddddByyBBBBBBB.    ",
"    o ByyyyyBggBddddddddddddddddddddddddddddddddddBggBByyyyyB   ",
"    o BgggggBggBddo..oddddmoomddddo..oddddmoomddddBggBBgggggB   ",
"    o BgggggBggBddooooddddmmmmddddooooddddmmmmddddBggBBgggggB   ",
"    o BBBBBByyBddddddddddddddddddddddddddddddddddByyBBBBBBB.    ",
"    o ByyyyyBggBddmoomddddo..oddddmoomddddo..oddddBggBByyyyyB   ",
"    o BgggggBggBddmmmmddddooooddddmmmmddddooooddddBggBBgggggB   ",
"    o BgggggBggBddddddddddddddddddddddddddddddddddBggBBgggggB   ",
"    o BBBBBByyBddo..oddddmoomddddo..oddddmoomddddByyBBBBBBB.    ",
"    o ByyyyyBggBddooooddddmmmmddddooooddddmmmmddddBggBByyyyyB   ",
"    o BgggggBggBddddddddddddddddddddddddddddddddddBggBBgggggB   ",
"    o BgggggBggBddmoomddddo..oddddmoomddddo..oddddBggBBgggggB   ",
"    o BBBBBByyBddmmmmddddooooddddmmmmddddooooddddByyBBBBBBB     ",
"    o ByyyyyBggBddddddddddddddddddddddddddddddddddBggBByyyyyB   ",
"    o BgggggBggBddo..oddddmoomddddo..oddddmoomddddBggBBgggggB   ",
"    o BgggggBggBddooooddddmmmmddddooooddddmmmmddddBggBBgggggB   ",
"    o BBBBBByyBddddddddddddddddddddddddddddddddddByyBBBBBBB.    ",
"    o ByyyyyBggBddmoomddddo..oddddmoomddddo..oddddBggBByyyyyB   ",
"    o BgggggBggBddmmmmddddooooddddmmmmddddooooddddBggBBgggggB   ",
"    o BgggggBggBddddddddddddddddddddddddddddddddddBggBBgggggB   ",
"    o BBBBBByyBddo..oddddmoomddddo..oddddmoomddddByyBBBBBBB.    ",
"    o ByyyyyBggBddooooddddmmmmddddooooddddmmmmddddBggBByyyyyB   ",
"    o BgggggBggBddddddddddddddddddddddddddddddddddBggBBgggggB   ",
"    o BgggggBggBBBBBBBBBBBBBBBBBBBBBBBBBBBBBBBBBBBBggBBgggggB   ",
"    o BBBBBByggggggggggggggggggggggggggggggggggggggggyBBBBBB    ",
"    o       BBggggggggggggggggggggggggggggggggggggggggBB        ",
"    o         BBggggggggggggggggggggggggggggggggggggBB.         ",
"    o         . BBBBBBBBBBBBBBBBBBBBBBBBBBBBBBBBBBBB  .         ",
"    o         .         .         .         .         .         ",
"    o         .         .         .         .         .         ",
"    o         .         .         .         .         .         ",
"    o         .         .         .         .         .         ",
"    o         .         .         .         .         .         ",
"    o         .         .         .         .         .         ",
"    o         .         .         .         .         .         ",
"    o         .         .         .         .         .         ",
"    o         .         .         .         .         .         ",
"    o         .         .         .         .         .         ",
"    o         .         .         .         .         .         ",
"    o         .         .         .         .         .         ",
"    o         .         .         .         .         .         ",
"    o         .         .         .         .         .         ",
"    o                                                           ",
"    o                                                           ",
"    o                                                           "
};