/* XPM */
static char *exit[] = {
"64 64 6 1",
"b c #87C8E6",
"k c #1B1B1B",
"g c #A0A0A0",
"r c #D24C3B",
"w c #F5F5F5",
"y c #F2C94C",
"bbbbbbbbbbbbbbbbbbbbbbbbbbbbbbbbbbbbbbbbbbbbbbbbbbbbbbbbbbbbbbbb",
"bbbbbbbbbbbbbbbbbbbbbbbbbbbbbbbbbbbbbbbbbbbbbbbbbbbbbbbbbbbbbbbb",
"bbbbbbbbbbbbbbbbbbbbbbbbbbbbbbbbbbbbbbbbbbbbbbbbbbbbbbbbbbbbbbbb",
"bbbbbbbbbbbbbbbbbbbbbbbbbbbbbbbbbbbbbbbbbbbbbbbbbbbbbbbbbbbbbbbb",
"bbbbbbbbbbbbbbbbbbbbbbbbbbbbbbbbbbbbbbbbbbbbbbbbbbbbbbbbbbbbbbbb",
"bbbbbbbbbbbbbbbbbbbbbbbbbbbbbbbbbbbbbbbbbbbbbbbbbbbbbbbbbbbbbbbb",
"bbbbbbbbbbbbbbbbbbbbkkkkkbkbbbkbkkkkkbkkkkkbbbbbbbbbbbbbbbbbbbbb",
"bbbbbbbbbbbbbbbbbbbbkbbbbbbkbkbbbbkbbbbbkbbbbbbbbbbbbbbbbbbbbbbb",
"bbbbbbbbbbbbbbbbbbbbkkkkbbbbkbbbbbkbbbbbkbbbbbbbbbbbbbbbbbbbbbbb",
"bbbbbbbbbbbbbbbbbbbbkbbbbbbkbkbbbbkbbbbbkbbbbbbbbbbbbbbbbbbbbbbb",
"bbbbbbbbbbbbbbbbbbbbkkkkkbkbbbkbkkkkkbbbkbbbbbbbbbbbbbbbbbbbbbbb",
"bbbbbbbbbbbbbbbbbbbbbbbbbbbbbbbbbbbbbbbbbbbbbbbbbbbbbbbbbbbbbbbb",
"bbbbbbbbbbbbbbbbbbbbbbbbbbbbbbbbbbbbbbbbbbbbbbbbbbbbbbbbbbbbbbbb",
"bbbbbbbbbbbbbbbbbbbbbbbbbbbbbbbbbbbbbbbbbbbbbbbbbbbbbbbbbbbbbbbb",
"bbbbbbbbbbbbbbbbbbbbbbbbbbbbbbbbbbbbbbbbbbbbbbbbbbbbbbbbbbbbbbbb",
"bbbbbbbbbbbbbbbbbbbbbbbbbbbbbbbbbbbbbbbbbbbbbbbbbbbbbbbbbbbbbbbb",
"bbbbbbbbbbbbbbbbbbbbbbbbbbbbbbbbbbbbbbbbbbbbbbbbbbbbbbbbbbbbbbbb",
"bbbbbbbbbbbbbbbbbbbbbbbbbbbbbbbbbbbbbbbbbbbbbbbbbbbbbbbbbbbbbbbb",
"bbbbbbbbbbbbbbbbbbbbbbbbbbbbbbbbbbbbbbbbbbbbbbbbbbbbbbbbbbbbbbbb",
"bbbbbbbbbbbbbbbbbbbbbbbbbbbbbbbbbbbbbbbbbbbbbbbbbbbbbbbbbbbbbbbb",
"bbbbbbbbbbbbbbbbbbbbbbbbbbbbbbbbbbbbbbbbbbbbbbbbbbbbbbbbbbbbbbbb",
"bbbbbbbbbbbbbbbbbbbbbbbbbbbbbbbbbbbbbbbbbbbbbbbbbbbbbbbbbbbbbbbb",
"bbbbbbbbbbbbbbbbbbbbbbbbbbbbbbbbbbbbbbbbbbbbbbbbbbbbbbbbbbbbbbbb",
"bbbbbbbbbbbbbbbbbbbbbbbbbbbbbbbbbbbbbbbbbbbbbbbbbbbbbbbbbbbbbbbb",
"bbbbbbbbbbbbbbbbbbbbbbbbbbbbbbbbbbbbbbbbggggggggggbbbbbbbbbbbbbb",
"bbbbbbbbbbbbbbbbbbbbbbbbbbbbbbbbbbbbbbbbgggggggywwwbbbbbbbbbbbbb",
"bbbbbbbbbbbbbbbbbbbbbbbbbbwwwwwwwwwwwwwbbbbbbbbbbbbbbbbbbbbbbbbb",
"bbbbbbbbbbbbbbbbbbbbbbbbgggggggggggggggbbbbbbbbbbbbbbbbbbbbbbbbb",
"bbbbbbbbbbbbbbbbbbbbbbbbggggggggggrrrrrrrrrrrrrrrrrbbbbbbbbbbbbb",
"bbbbbbbbbbbbbbbbbbbbbbbbbbbbbbbbbbrrrrrrrrrrrrrrrrrbbbbbbbbbbbbb",
"bbbbbbbbbbbbbbbbbbrrrrrrrrrrrrrrrrrrrrrrrrrrrrrrrrrbbbbbbbbbbbbb",
"bbbbbbbbbbbbbbbyrrrrrrrrrrrrrrrrrrrrrrrrrrrrrrrrrrrbbbbbbbbbbbbb",
"bbbbbbbbbbbbbbbyrrrrrrrrrrrrrrrrrrrrrrrrrrrrrrrrrrrbbbbbbbbbbbbb",
"bbbbbbbbbbbbbbbbrrrrrrrrrrrrrrrrrrrrrrrrrrrrrrrrrrrbbbbbbbbbbbbb",
"bbbbbbbbbbbbbbbbbbrrrrrrrrrrrrrrrrrrrrrrrrrrrrrrrrbbbbbbbbbbbbbb",
"bbbbbbbbbbbbbbbbbbrrrrrrrrrrrrrrrrrrrrrrrrrrrrrrrrbbbbbbbbbbbbbb",
"bbbbbbbbbbbbbbbbbbbrrrrrrrrrrrrrrrrrrrrrrrrrrrrrrrbbbbbbbbbbbbbb",
"bbbbbbbbbbbbbbbbbbbrrrrrrrrrrrrrrrrrrrrrrrrrrrrrrrbbbbbbbbbbbbbb",
"bbbbbbbbbbbbbbbbbbbrrrrrrrrrrrrrrrrrrrrrrrrrrrrrrrbbbbbbbbbbbbbb",
"bbbbbbbbbbbbbbbbbbbrrrrrrrrrrrrrrrrrrrrrrrrrrrrrrrbbbbbbbbbbbbbb",
"bbbbbbbbbbbbbbbbbbbrrrrrrrgggggggggggggggggggrrrrrrbbbbbbbbbbbbb",
"bbbbbbbbbbbbbbbbbbbrkrrrrrggggggggggggggggggkrrrrrrbbbbbbbbbbbbb",
"bbbbbbbbbbbbbbbbbkkkkkkkbbgggggggggggggggkkkkkkkrrrbbbbbbbbbbbbb",
"bbbbbbbbbbbbbbbbkkkkkkkkkbbbbbbbbbbbbrrrkkkkkkkkkrrbbbbbbbbbbbbb",
"bbbbbbbbbbbbbbbbkkkkgkkkkbbbbbbbbbbbbbrrkkkkgkkkkrrbbbbbbbbbbbbb",
"bbbbbbbbbbbbbbbbkkkgggkkkbbbbbbbbbbbbbbbkkkgggkkkbbbbbbbbbbbbbbb",
"bbbbbbbbbbbbbbbkkkgggggkkkbbbbbbbbbbbbbkkkgggggkkkbbbbbbbbbbbbbb",
"bbbbbbbbbbbbbbbbkkkgggkkkbbbbbbbbbbbbbbbkkkgggkkkbbbbbbbbbbbbbbb",
"bbbbbbbbbbbbbbbbkkkkgkkkkbbbbbbbbbbbbbbbkkkkgkkkkbbbbbbbbbbbbbbb",
"bbbbbbbbbbbbbbbbkkkkkkkkkbbbbbggbbbbbbbbkkkkkkkkkbbbbbbbbbbbbbbb",
"bbbbbbbbbbbbbbbbbkkkkkkkbbbbbbggbbbbbbbbbkkkkkkkbbbbbbbbbbbbbbbb",
"bbbbbbbbbbbbbbbbbbbbkbbbbbbbbbggbbbbbbbbbbbbkbbbbbbbbbbbbbbbbbbb",
"bbbbbbbbbbbbgggggggggggggggggggggggggggggggggggggggggbbbbbbbbbbb",
"bbbbbbbbbbbbbbbbbbbbbbbbbbbbbbbbbbbbbbbbbbbbbbbbbbbbbbbbbbbbbbbb",
"bbbbbbbbbbbbbbbbbbbbbbbbbbbbbbbbbbbbbbbbbbbbbbbbbbbbbbbbbbbbbbbb",
"bbbbbbbbbbbbbbbbbbbbbbbbbbbbbbbbbbbbbbbbbbbbbbbbbbbbbbbbbbbbbbbb",
"bbbbbbbbbbbbbbbbbbbbbbbbbbbbbbbbbbbbbbbbbbbbbbbbbbbbbbbbbbbbbbbb",
"bbbbbbbbbbbbbbbbbkbbbkbkkkkkbbkkkkbkkkkbbbkkkbbbbbbbbbbbbbbbbbbb",
"bbbbbbbbbbbbbbbbbkbbbkbkbbbbbkbbbbbkbbbkbkbbbkbbbbbbbbbbbbbbbbbb",
"bbbbbbbbbbbbbbbbbkbbbkbkkkkbbbkkkkbkkkkbbkkkkkbbbbbbbbbbbbbbbbbb",
"bbbbbbbbbbbbbbbbbbkbkbbkbbbbbbbbbkbkbbbbbkbbbkbbbbbbbbbbbbbbbbbb",
"bbbbbbbbbbbbbbbbbbbkbbbkkkkkbkkkkbbkbbbbbkbbbkbbbbbbbbbbbbbbbbbb",
"bbbbbbbbbbbbbbbbbbbbbbbbbbbbbbbbbbbbbbbbbbbbbbbbbbbbbbbbbbbbbbbb",
"bbbbbbbbbbbbbbbbbbbbbbbbbbbbbbbbbbbbbbbbbbbbbbbbbbbbbbbbbbbbbbbb",
};
