/* XPM */
static char *floor[] = {
"64 64 2 1",
"g c #3A7D2A",
"l c #4FA83A",
"lgggggglggglgglggggggllggggglgggglglgggggglglgggglgggggllggggggl",
"ggggggllggggglgggglglgggggglglgggglgggggllgggggglgglggglgggggglg",
"ggglglgggggglglgggglgggggllgggggglgglggglgggggglgggggglggglgglgg",
"gggglgggggllgggggglgglggglgggggglgggggglggglgglggggggllggggglggg",
"ggglgglggglgggggglgggggglggglgglggggggllggggglgggglglgggggglglgg",
"gglgggggglggglgglggggggllggggglgggglglgggggglglgggglgggggllggggg",
"glggggggllggggglgggglglgggggglglgggglgggggllgggggglgglggglgggggg",
"lgggglglgggggglglgggglgggggllgggggglgglggglgggggglgggggglggglggl",
"glgggglgggggllgggggglgglggglgggggglgggggglggglgglggggggllggggglg",
"ggggglgglggglgggggglgggggglggglgglggggggllggggglgggglglgggggglgl",
"gggglgggggglggglgglggggggllggggglgggglglgggggglglgggglgggggllggg",
"lgglggggggllggggglgggglglgggggglglgggglgggggllgggggglgglggglgggg",
"gglgggglglgggggglglgggglgggggllgggggglgglggglgggggglgggggglggglg",
"glglgggglgggggllgggggglgglggglgggggglgggggglggglgglggggggllggggg",
"lgggggglgglggglgggggglgggggglggglgglggggggllggggglgggglglggggggl",
"gggggglgggggglggglgglggggggllggggglgggglglgggggglglgggglgggggllg",
"gglgglggggggllggggglgggglglgggggglglgggglgggggllgggggglgglggglgg",
"gggglgggglglgggggglglgggglgggggllgggggglgglggglgggggglgggggglggg",
"ggglglgggglgggggllgggggglgglggglgggggglgggggglggglgglggggggllggg",
"gllgggggglgglggglgggggglgggggglggglgglggggggllggggglgggglglggggg",
"glgggggglgggggglggglgglggggggllggggglgggglglgggggglglgggglgggggl",
"lggglgglggggggllggggglgggglglgggggglglgggglgggggllgggggglgglgggl",
"lggggglgggglglgggggglglgggglgggggllgggggglgglggglgggggglgggggglg",
"ggggglglgggglgggggllgggggglgglggglgggggglgggggglggglgglggggggllg",
"gggllgggggglgglggglgggggglgggggglggglgglggggggllggggglgggglglggg",
"ggglgggggglgggggglggglgglggggggllggggglgggglglgggggglglgggglgggg",
"gglggglgglggggggllggggglgggglglgggggglglgggglgggggllgggggglgglgg",
"gllggggglgggglglgggggglglgggglgggggllgggggglgglggglgggggglgggggg",
"lgggggglglgggglgggggllgggggglgglggglgggggglgggggglggglgglggggggl",
"gggggllgggggglgglggglgggggglgggggglggglgglggggggllggggglgggglglg",
"glggglgggggglgggggglggglgglggggggllggggglgggglglgggggglglgggglgg",
"gggglggglgglggggggllggggglgggglglgggggglglgggglgggggllgggggglggl",
"gggllggggglgggglglgggggglglgggglgggggllgggggglgglggglgggggglgggg",
"lglgggggglglgggglgggggllgggggglgglggglgggggglgggggglggglgglggggg",
"glgggggllgggggglgglggglgggggglgggggglggglgglggggggllggggglgggglg",
"lgglggglgggggglgggggglggglgglggggggllggggglgggglglgggggglglggggl",
"gggggglggglgglggggggllggggglgggglglgggggglglgggglgggggllgggggglg",
"gggggllggggglgggglglgggggglglgggglgggggllgggggglgglggglgggggglgg",
"gglglgggggglglgggglgggggllgggggglgglggglgggggglgggggglggglgglggg",
"ggglgggggllgggggglgglggglgggggglgggggglggglgglggggggllggggglgggg",
"gglgglggglgggggglgggggglggglgglggggggllggggglgggglglgggggglglggg",
"glgggggglggglgglggggggllggggglgggglglgggggglglgggglgggggllgggggg",
"lggggggllggggglgggglglgggggglglgggglgggggllgggggglgglggglggggggl",
"gggglglgggggglglgggglgggggllgggggglgglggglgggggglgggggglggglgglg",
"lgggglgggggllgggggglgglggglgggggglgggggglggglgglggggggllggggglgg",
"gggglgglggglgggggglgggggglggglgglggggggllggggglgggglglgggggglglg",
"ggglgggggglggglgglggggggllggggglgggglglgggggglglgggglgggggllgggg",
"gglggggggllggggglgggglglgggggglglgggglgggggllgggggglgglggglggggg",
"glgggglglgggggglglgggglgggggllgggggglgglggglgggggglgggggglggglgg",
"lglgggglgggggllgggggglgglggglgggggglgggggglggglgglggggggllgggggl",
"gggggglgglggglgggggglgggggglggglgglggggggllggggglgggglglgggggglg",
"ggggglgggggglggglgglggggggllggggglgggglglgggggglglgggglgggggllgg",
"glgglggggggllggggglgggglglgggggglglgggglgggggllgggggglgglggglggg",
"ggglgggglglgggggglglgggglgggggllgggggglgglggglgggggglgggggglgggl",
"gglglgggglgggggllgggggglgglggglgggggglgggggglggglgglggggggllgggg",
"llgggggglgglggglgggggglgggggglggglgglggggggllggggglgggglglgggggg",
"lgggggglgggggglggglgglggggggllggggglgggglglgggggglglgggglgggggll",
"ggglgglggggggllggggglgggglglgggggglglgggglgggggllgggggglgglggglg",
"ggggglgggglglgggggglglgggglgggggllgggggglgglggglgggggglgggggglgg",
"gggglglgggglgggggllgggggglgglggglgggggglgggggglggglgglggggggllgg",
"ggllgggggglgglggglgggggglgggggglggglgglggggggllggggglgggglglgggg",
"gglgggggglgggggglggglgglggggggllggggglgggglglgggggglglgggglggggg",
"glggglgglggggggllggggglgggglglgggggglglgggglgggggllgggggglgglggg",
"llggggglgggglglgggggglglgggglgggggllgggggglgglggglgggggglggggggl",
};