/* XPM */
static char *player[] = {
"64 64 9 1",
"  c #050510", /* Sfondo pavimento */
". c #0A1430", /* Linee griglia secondarie */
"o c #00F2FF", /* Laser pavimento */
"B c #000000", /* Outline nero */
"p c #D35BFF", /* Viola chiaro (Testa) */
"P c #9B26D1", /* Viola scuro (Ombra testa) */
"v c #E8A8FF", /* Riflesso bianco/viola */
"k c #6A1B8F", /* Viola scurissimo (Corpo/Gambe) */
"K c #4A1264", /* Ombra gambe */
"                                                                ",
"                                                                ",
"                                                                ",
"                                                                ",
"    o                   BBBBBBBBBB                              ",
"    o                 BBppppppppppBB                            ",
"ooooo ooooooooooooooBBppppppppppppppBBoooooooooooooooooooooooooo",
"    o               BppppvvppppppppppB                          ",
"    o               BppvvvvppppppppppB                          ",
"    o         .     BppppppppppppppppB      .         .         ",
"    o         .     BppppppppPPPPPpppB      .         .         ",
"    o         .     BppppppPPPPPPPpppB      .         .         ",
"    o         .     BppppppPPPPPPPpppB      .         .         ",
"    o         .     BppppppPPPPPPPpppB      .         .         ",
"    o         .     BppvpppPPPPPPPpppB      .         .         ",
"    o         .     BppppppPPPPPPPpppB      .         .         ",
"    o         .     BBppppPPPPPPPppBB       .         .         ",
"    o         .     BppppppPPPPPPPpppB      .         .         ",
"    o         .     BppppppPPPPPPPpppB      .         .         ",
"    o         .     BppppppPPPPPPPpppB      .         .         ",
"    o         .     BppppppPPPPPPPpppB      .         .         ",
"    o         .     BppvpppPPPPPPPpppB      .         .         ",
"    o         .     BppppppPPPPPPPpppB      .         .         ",
"    o         .     BBppppPPPPPPPppBB       .         .         ",
"    o         .     BppppppPPPPPPPpppB      .         .         ",
"    o         .     BppppppPPPPPPPpppB      .         .         ",
"    o         .     BppvpppPPPPPPPpppB      .         .         ",
"    o         .     BppppppPPPPPPPpppB      .         .         ",
"    o         .     BBppppPPPPPPPppBB       .         .         ",
"    o         .       BBpppppppBB           .         .         ",
"    o         .         BBkkkBB             .         .         ",
"    o         .           BkB               .         .         ",
"    o         .           BkB               .         .         ",
"    o         .         BBkkkBB             .         .         ",
"    o         .       BBkkkkkkkBB           .         .         ",
"    o         .     BBkBBkkkkkBBkBB         .         .         ",
"    o         .    BkBB  BkkkB  BBkB        .         .         ",
"    o         .   BkB     BkB     BkB       .         .         ",
"    o         .   BkB     BkB     BkB       .         .         ",
"    o         .   BkB     BkB     BkB       .         .         ",
"    o         .   BkB     BkB     BkB       .         .         ",
"    o         .   BkB     BkB     BkB       .         .         ",
"    o         .   BkB     BkB     BkB       .         .         ",
"    o         .   BkB     BkB     BkB       .         .         ",
"    o         .   BkB     BkB     BkB       .         .         ",
"    o         .   BkB     BkB     BkB       .         .         ",
"    o         .   BkB     BkB     BkB       .         .         ",
"    o         .   BkB     BkB     BkB       .         .         ",
"    o         .   BkB     BkB     BkB       .         .         ",
"    o         .         .         .         .         .         ",
"    o         .         .         .         .         .         ",
"    o         .         .         .         .         .         ",
"    o         .         .         .         .         .         ",
"    o         .         .         .         .         .         ",
"    o         .         .         .         .         .         ",
"    o         .         .         .         .         .         ",
"    o         .         .         .         .         .         ",
"    o         .         .         .         .         .         ",
"    o         .         .         .         .         .         ",
"    o         .         .         .         .         .         ",
"    o         .         .         .         .         .         ",
"    o         .         .         .         .         .         ",
"    o         .         .         .         .         .         ",
"    o         .         .         .         .         .         "
};