/* XPM */
static char *player[] = {
"64 64 3 1",
"g c #009246",
"w c #FFFFFF",
"r c #CE2B37",
"gggggggggggggggggggggwwwwwwwwwwwwwwwwwwwwwwrrrrrrrrrrrrrrrrrrrrr",
"gggggggggggggggggggggwwwwwwwwwwwwwwwwwwwwwwrrrrrrrrrrrrrrrrrrrrr",
"gggggggggggggggggggggwwwwwwwwwwwwwwwwwwwwwwrrrrrrrrrrrrrrrrrrrrr",
"gggggggggggggggggggggwwwwwwwwwwwwwwwwwwwwwwrrrrrrrrrrrrrrrrrrrrr",
"gggggggggggggggggggggwwwwwwwwwwwwwwwwwwwwwwrrrrrrrrrrrrrrrrrrrrr",
"gggggggggggggggggggggwwwwwwwwwwwwwwwwwwwwwwrrrrrrrrrrrrrrrrrrrrr",
"gggggggggggggggggggggwwwwwwwwwwwwwwwwwwwwwwrrrrrrrrrrrrrrrrrrrrr",
"gggggggggggggggggggggwwwwwwwwwwwwwwwwwwwwwwrrrrrrrrrrrrrrrrrrrrr",
"gggggggggggggggggggggwwwwwwwwwwwwwwwwwwwwwwrrrrrrrrrrrrrrrrrrrrr",
"gggggggggggggggggggggwwwwwwwwwwwwwwwwwwwwwwrrrrrrrrrrrrrrrrrrrrr",
"gggggggggggggggggggggwwwwwwwwwwwwwwwwwwwwwwrrrrrrrrrrrrrrrrrrrrr",
"gggggggggggggggggggggwwwwwwwwwwwwwwwwwwwwwwrrrrrrrrrrrrrrrrrrrrr",
"gggggggggggggggggggggwwwwwwwwwwwwwwwwwwwwwwrrrrrrrrrrrrrrrrrrrrr",
"gggggggggggggggggggggwwwwwwwwwwwwwwwwwwwwwwrrrrrrrrrrrrrrrrrrrrr",
"gggggggggggggggggggggwwwwwwwwwwwwwwwwwwwwwwrrrrrrrrrrrrrrrrrrrrr",
"gggggggggggggggggggggwwwwwwwwwwwwwwwwwwwwwwrrrrrrrrrrrrrrrrrrrrr",
"gggggggggggggggggggggwwwwwwwwwwwwwwwwwwwwwwrrrrrrrrrrrrrrrrrrrrr",
"gggggggggggggggggggggwwwwwwwwwwwwwwwwwwwwwwrrrrrrrrrrrrrrrrrrrrr",
"gggggggggggggggggggggwwwwwwwwwwwwwwwwwwwwwwrrrrrrrrrrrrrrrrrrrrr",
"gggggggggggggggggggggwwwwwwwwwwwwwwwwwwwwwwrrrrrrrrrrrrrrrrrrrrr",
"gggggggggggggggggggggwwwwwwwwwwwwwwwwwwwwwwrrrrrrrrrrrrrrrrrrrrr",
"gggggggggggggggggggggwwwwwwwwwwwwwwwwwwwwwwrrrrrrrrrrrrrrrrrrrrr",
"gggggggggggggggggggggwwwwwwwwwwwwwwwwwwwwwwrrrrrrrrrrrrrrrrrrrrr",
"gggggggggggggggggggggwwwwwwwwwwwwwwwwwwwwwwrrrrrrrrrrrrrrrrrrrrr",
"gggggggggggggggggggggwwwwwwwwwwwwwwwwwwwwwwrrrrrrrrrrrrrrrrrrrrr",
"gggggggggggggggggggggwwwwwwwwwwwwwwwwwwwwwwrrrrrrrrrrrrrrrrrrrrr",
"gggggggggggggggggggggwwwwwwwwwwwwwwwwwwwwwwrrrrrrrrrrrrrrrrrrrrr",
"gggggggggggggggggggggwwwwwwwwwwwwwwwwwwwwwwrrrrrrrrrrrrrrrrrrrrr",
"gggggggggggggggggggggwwwwwwwwwwwwwwwwwwwwwwrrrrrrrrrrrrrrrrrrrrr",
"gggggggggggggggggggggwwwwwwwwwwwwwwwwwwwwwwrrrrrrrrrrrrrrrrrrrrr",
"gggggggggggggggggggggwwwwwwwwwwwwwwwwwwwwwwrrrrrrrrrrrrrrrrrrrrr",
"gggggggggggggggggggggwwwwwwwwwwwwwwwwwwwwwwrrrrrrrrrrrrrrrrrrrrr",
"gggggggggggggggggggggwwwwwwwwwwwwwwwwwwwwwwrrrrrrrrrrrrrrrrrrrrr",
"gggggggggggggggggggggwwwwwwwwwwwwwwwwwwwwwwrrrrrrrrrrrrrrrrrrrrr",
"gggggggggggggggggggggwwwwwwwwwwwwwwwwwwwwwwrrrrrrrrrrrrrrrrrrrrr",
"gggggggggggggggggggggwwwwwwwwwwwwwwwwwwwwwwrrrrrrrrrrrrrrrrrrrrr",
"gggggggggggggggggggggwwwwwwwwwwwwwwwwwwwwwwrrrrrrrrrrrrrrrrrrrrr",
"gggggggggggggggggggggwwwwwwwwwwwwwwwwwwwwwwrrrrrrrrrrrrrrrrrrrrr",
"gggggggggggggggggggggwwwwwwwwwwwwwwwwwwwwwwrrrrrrrrrrrrrrrrrrrrr",
"gggggggggggggggggggggwwwwwwwwwwwwwwwwwwwwwwrrrrrrrrrrrrrrrrrrrrr",
"gggggggggggggggggggggwwwwwwwwwwwwwwwwwwwwwwrrrrrrrrrrrrrrrrrrrrr",
"gggggggggggggggggggggwwwwwwwwwwwwwwwwwwwwwwrrrrrrrrrrrrrrrrrrrrr",
"gggggggggggggggggggggwwwwwwwwwwwwwwwwwwwwwwrrrrrrrrrrrrrrrrrrrrr",
"gggggggggggggggggggggwwwwwwwwwwwwwwwwwwwwwwrrrrrrrrrrrrrrrrrrrrr",
"gggggggggggggggggggggwwwwwwwwwwwwwwwwwwwwwwrrrrrrrrrrrrrrrrrrrrr",
"gggggggggggggggggggggwwwwwwwwwwwwwwwwwwwwwwrrrrrrrrrrrrrrrrrrrrr",
"gggggggggggggggggggggwwwwwwwwwwwwwwwwwwwwwwrrrrrrrrrrrrrrrrrrrrr",
"gggggggggggggggggggggwwwwwwwwwwwwwwwwwwwwwwrrrrrrrrrrrrrrrrrrrrr",
"gggggggggggggggggggggwwwwwwwwwwwwwwwwwwwwwwrrrrrrrrrrrrrrrrrrrrr",
"gggggggggggggggggggggwwwwwwwwwwwwwwwwwwwwwwrrrrrrrrrrrrrrrrrrrrr",
"gggggggggggggggggggggwwwwwwwwwwwwwwwwwwwwwwrrrrrrrrrrrrrrrrrrrrr",
"gggggggggggggggggggggwwwwwwwwwwwwwwwwwwwwwwrrrrrrrrrrrrrrrrrrrrr",
"gggggggggggggggggggggwwwwwwwwwwwwwwwwwwwwwwrrrrrrrrrrrrrrrrrrrrr",
"gggggggggggggggggggggwwwwwwwwwwwwwwwwwwwwwwrrrrrrrrrrrrrrrrrrrrr",
"gggggggggggggggggggggwwwwwwwwwwwwwwwwwwwwwwrrrrrrrrrrrrrrrrrrrrr",
"gggggggggggggggggggggwwwwwwwwwwwwwwwwwwwwwwrrrrrrrrrrrrrrrrrrrrr",
"gggggggggggggggggggggwwwwwwwwwwwwwwwwwwwwwwrrrrrrrrrrrrrrrrrrrrr",
"gggggggggggggggggggggwwwwwwwwwwwwwwwwwwwwwwrrrrrrrrrrrrrrrrrrrrr",
"gggggggggggggggggggggwwwwwwwwwwwwwwwwwwwwwwrrrrrrrrrrrrrrrrrrrrr",
"gggggggggggggggggggggwwwwwwwwwwwwwwwwwwwwwwrrrrrrrrrrrrrrrrrrrrr",
"gggggggggggggggggggggwwwwwwwwwwwwwwwwwwwwwwrrrrrrrrrrrrrrrrrrrrr",
"gggggggggggggggggggggwwwwwwwwwwwwwwwwwwwwwwrrrrrrrrrrrrrrrrrrrrr",
"gggggggggggggggggggggwwwwwwwwwwwwwwwwwwwwwwrrrrrrrrrrrrrrrrrrrrr",
"gggggggggggggggggggggwwwwwwwwwwwwwwwwwwwwwwrrrrrrrrrrrrrrrrrrrrr",
};